<svg xmlns="http://www.w3.org/2000/svg" width="1200" height="700" viewBox="0 0 1200 700" fill="none">
  <defs>
    <linearGradient id="goal-bg" x1="73" y1="45" x2="1087" y2="674" gradientUnits="userSpaceOnUse">
      <stop stop-color="#EAF4FF"/>
      <stop offset=".58" stop-color="#D5EAF8"/>
      <stop offset="1" stop-color="#F6EADC"/>
    </linearGradient>
    <linearGradient id="goal-panel" x1="546" y1="125" x2="1012" y2="578" gradientUnits="userSpaceOnUse">
      <stop stop-color="#fff"/>
      <stop offset="1" stop-color="#EEF5FA"/>
    </linearGradient>
    <linearGradient id="goal-ground" x1="530" y1="428" x2="530" y2="700" gradientUnits="userSpaceOnUse">
      <stop stop-color="#9DBDCE"/>
      <stop offset="1" stop-color="#476D89"/>
    </linearGradient>
    <filter id="goal-shadow" x="-20%" y="-20%" width="140%" height="150%">
      <feDropShadow dx="0" dy="16" stdDeviation="16" flood-color="#173B59" flood-opacity=".16"/>
    </filter>
  </defs>
  <path fill="url(#goal-bg)" d="M0 0h1200v700H0z"/>
  <circle cx="168" cy="150" r="84" fill="#fff" fill-opacity=".58"/>
  <circle cx="168" cy="150" r="124" stroke="#fff" stroke-opacity=".58" stroke-width="2"/>
  <path d="M0 455c145-52 250-30 394 3 135 31 249 5 372-33 162-51 279-36 434 7v268H0V455Z" fill="#A9C6D5"/>
  <path d="M0 545c185-59 315-38 468 4 138 38 267 8 394-33 122-39 223-39 338-8v192H0V545Z" fill="url(#goal-ground)"/>
  <path d="M0 637c208-39 363-23 521 6 219 41 434 4 679-32v89H0v-63Z" fill="#315975" fill-opacity=".6"/>
  <path d="M0 578h1200M0 628h1200M0 678h1200" stroke="#DFEDF6" stroke-opacity=".28" stroke-width="2"/>
  <g filter="url(#goal-shadow)">
    <rect x="488" y="112" width="626" height="414" rx="22" fill="url(#goal-panel)" stroke="#fff" stroke-width="4"/>
    <path d="M488 166h626" stroke="#DCE7EF" stroke-width="2"/>
    <circle cx="525" cy="139" r="7" fill="#D42F3F"/>
    <circle cx="549" cy="139" r="7" fill="#E7B459"/>
    <circle cx="573" cy="139" r="7" fill="#4DAD86"/>
    <rect x="530" y="194" width="202" height="286" rx="14" fill="#EAF2F8"/>
    <path d="M565 419V358m49 61V319m49 100V286m48 133V248" stroke="#0B65B8" stroke-width="19" stroke-linecap="round"/>
    <path d="m556 330 51-30 49-37 49-40" stroke="#D42F3F" stroke-width="5" stroke-linecap="round" stroke-linejoin="round"/>
    <circle cx="556" cy="330" r="7" fill="#D42F3F"/>
    <circle cx="607" cy="300" r="7" fill="#D42F3F"/>
    <circle cx="656" cy="263" r="7" fill="#D42F3F"/>
    <circle cx="705" cy="223" r="7" fill="#D42F3F"/>
    <path d="M553 447h174" stroke="#A8BAC9" stroke-width="3"/>
    <rect x="765" y="194" width="310" height="128" rx="14" fill="#EAF2F8"/>
    <circle cx="827" cy="258" r="36" stroke="#C5D8E6" stroke-width="15"/>
    <path d="M827 222a36 36 0 0 1 34 24" stroke="#0B65B8" stroke-width="15" stroke-linecap="round"/>
    <path d="M827 222a36 36 0 0 1 34 24" stroke="#D42F3F" stroke-width="4" stroke-linecap="round"/>
    <path d="M886 233h143m-143 27h112m-112 27h128" stroke="#52718A" stroke-opacity=".7" stroke-width="8" stroke-linecap="round"/>
    <rect x="765" y="344" width="310" height="136" rx="14" fill="#EAF2F8"/>
    <path d="M794 445h36v-37h36v20h37v-52h36v32h37v-69h36v35h37" stroke="#0B65B8" stroke-width="7" stroke-linecap="round" stroke-linejoin="round"/>
    <path d="M794 459h253" stroke="#A8BAC9" stroke-width="3"/>
    <path d="m968 372 17 17 35-39" stroke="#4DAD86" stroke-width="7" stroke-linecap="round" stroke-linejoin="round"/>
  </g>
  <path d="M348 289c56 1 102-9 148-31" stroke="#0B65B8" stroke-opacity=".55" stroke-width="4" stroke-dasharray="9 12"/>
  <circle cx="348" cy="289" r="7" fill="#D42F3F"/>
  <g>
    <path d="m168 320 68-30 118 1 60 29-60 30H236l-68-30Z" fill="#F7FBFF" stroke="#244C70" stroke-width="5" stroke-linejoin="round"/>
    <path d="m236 290 27-26h75l20 26m-117 59-32 32m137-32 31 32" stroke="#345B7D" stroke-width="7" stroke-linecap="round" stroke-linejoin="round"/>
    <path d="M205 381h25m168 0h26m-219 0c0-13 11-23 24-23m193 23c0-13-11-23-24-23" stroke="#244C70" stroke-width="6" stroke-linecap="round"/>
    <circle cx="294" cy="320" r="11" fill="#0B3D91"/>
    <circle cx="294" cy="320" r="4" fill="#9DDAFF"/>
    <path d="M278 335h32l-8 25h-16l-8-25Z" fill="#1D3D5B"/>
    <path d="M290 359h8v35l-4 13-4-13v-35Z" fill="#D42F3F"/>
    <path d="m288 406 12 0-6 18-6-18Z" fill="#FFB15A"/>
  </g>
  <rect x="48" y="46" width="244" height="42" rx="21" fill="#fff" fill-opacity=".72"/>
  <circle cx="73" cy="67" r="6" fill="#0B65B8"/>
  <path d="M91 67h123" stroke="#264864" stroke-opacity=".68" stroke-width="5" stroke-linecap="round"/>
  <path d="M224 67h44" stroke="#264864" stroke-opacity=".34" stroke-width="5" stroke-linecap="round"/>
</svg>
